<svg width="74" height="38" viewBox="0 0 74 38" fill="none" xmlns="http://www.w3.org/2000/svg">
<g clip-path="url(#clip0_1472_18010)">
<path d="M50.8831 34.2357C48.8349 33.4376 47.0923 32.3296 45.6535 30.9081C44.2148 29.4867 43.0942 27.77 42.2881 25.7545C41.482 23.7389 41.0781 21.543 41.0781 19.1648C41.0781 16.7866 41.4803 14.587 42.2881 12.5642C43.0942 10.5413 44.2166 8.8192 45.6535 7.39958C47.0923 5.97813 48.8349 4.87013 50.8831 4.07194C52.9313 3.27374 55.16 2.87646 57.5711 2.87646C59.9821 2.87646 62.1608 3.27192 64.1947 4.061C66.2286 4.85191 67.9641 5.95262 69.4028 7.36678C70.8416 8.78093 71.9658 10.5012 72.7808 12.5314C73.594 14.5615 74.0015 16.772 74.0015 19.1648C74.0015 21.5575 73.594 23.7644 72.7808 25.7873C71.9676 27.8101 70.8416 29.5286 69.4028 30.9409C67.9641 32.3551 66.2286 33.4558 64.1947 34.2467C62.1608 35.0376 59.9535 35.4312 57.5711 35.4312C55.1886 35.4312 52.9295 35.0321 50.8831 34.2357ZM61.5049 26.4178C62.6737 25.6706 63.5745 24.6629 64.2072 23.3945C64.8399 22.1261 65.1545 20.7156 65.1545 19.1648C65.1545 17.6139 64.8381 16.2034 64.2072 14.9351C63.5745 13.6667 62.6755 12.6589 61.5049 11.9118C60.336 11.1646 59.017 10.791 57.5496 10.791C56.0823 10.791 54.6114 11.1609 53.4496 11.9008C52.2879 12.6407 51.3835 13.6485 50.7365 14.9241C50.0896 16.1998 49.7678 17.6139 49.7678 19.1648C49.7678 20.7156 50.0913 22.1261 50.7365 23.3945C51.3835 24.6629 52.2915 25.6706 53.4603 26.4178C54.6292 27.165 56.0966 27.5386 57.5496 27.5386C59.0027 27.5386 60.3342 27.165 61.5049 26.4178Z" fill="white"/>
<path d="M31.8279 20.775C30.8788 19.8073 30.8788 18.2364 31.8279 17.2688L41.8259 7.07444C41.867 7.03253 41.8384 6.95963 41.7794 6.95963L28.2783 7.08355C28.2605 7.08355 28.2444 7.09084 28.2319 7.1036L25.1649 10.2308C24.1497 11.2659 22.5054 11.2659 21.4903 10.2308L11.5137 0.061974C11.5012 0.0492175 11.4851 0.041928 11.4673 0.041928L1.50678 1.35728e-05C0.169904 -0.00545353 -0.503897 1.64197 0.44157 2.606L14.5378 16.9772C15.6441 18.1052 15.6441 19.9349 14.5378 21.0647L7.16172 28.5857C6.25378 29.5114 6.89362 31.0932 8.17689 31.0987L18.1945 31.1406C18.2124 31.1406 18.2285 31.1333 18.241 31.1206L21.7065 27.587C22.6002 26.6758 24.0497 26.6758 24.9433 27.587L35.1361 37.98C35.1486 37.9927 35.1647 38 35.1826 38L45.3575 37.9927C46.5961 37.9927 47.2163 36.4656 46.3405 35.5726L31.8261 20.7732L31.8279 20.775Z" fill="white"/>
</g>
<defs>
<clipPath id="clip0_1472_18010">
<rect width="74" height="38" fill="white"/>
</clipPath>
</defs>
</svg>
